<?xml version="1.0" encoding="UTF-8"?>
<svg version="1.1" xmlns="http://www.w3.org/2000/svg" width="32" height="32">
<path d="M0 0 C3.375 -0.1875 3.375 -0.1875 7 0 C7.66 0.99 8.32 1.98 9 3 C9.61875 2.814375 10.2375 2.62875 10.875 2.4375 C13 2 13 2 15 3 C15 4.98 15 6.96 15 9 C16.65 9.66 18.3 10.32 20 11 C19.25 17.75 19.25 17.75 17 20 C17.391875 20.556875 17.78375 21.11375 18.1875 21.6875 C19 24 19 24 18 26.6875 C16 29 16 29 12.8125 29.8125 C11.884375 29.874375 10.95625 29.93625 10 30 C9.67 29.34 9.34 28.68 9 28 C8.62875 28.66 8.2575 29.32 7.875 30 C6 32 6 32 2.9375 32.4375 C1.968125 32.293125 0.99875 32.14875 0 32 C-0.66 31.01 -1.32 30.02 -2 29 C-2.598125 29.20625 -3.19625 29.4125 -3.8125 29.625 C-6 30 -6 30 -9 28 C-9 26 -9 24 -9 22 C-9.495 21.525625 -9.99 21.05125 -10.5 20.5625 C-12 19 -12 19 -12.375 15.4375 C-12.25125 14.303125 -12.1275 13.16875 -12 12 C-11.01 11.34 -10.02 10.68 -9 10 C-8.95834635 8.33385392 -8.95834635 6.66614608 -9 5 C-7 3 -7 3 -3.9375 2.5 C-2.4834375 2.2525 -2.4834375 2.2525 -1 2 C-0.67 1.34 -0.34 0.68 0 0 Z M3 2 C3.33 3.32 3.66 4.64 4 6 C4.33 4.68 4.66 3.36 5 2 C4.34 2 3.68 2 3 2 Z M11 5 C10.67 6.65 10.34 8.3 10 10 C10.66 9.67 11.32 9.34 12 9 C11.67 7.68 11.34 6.36 11 5 Z M-6 6 C-5.67 6.99 -5.34 7.98 -5 9 C-3.35 9.33 -1.7 9.66 0 10 C-1.29467677 7.94009522 -1.29467677 7.94009522 -3 6 C-3.99 6 -4.98 6 -6 6 Z M6 7 C7 10 7 10 7 10 Z M9 10 C10 12 10 12 10 12 Z M4 11 C4.99 12.485 4.99 12.485 6 14 C6 13.01 6 12.02 6 11 C5.34 11 4.68 11 4 11 Z M16 12 C14.37168238 13.80961577 14.37168238 13.80961577 13 16 C13.33 16.99 13.66 17.98 14 19 C15.62831762 17.19038423 15.62831762 17.19038423 17 15 C16.67 14.01 16.34 13.02 16 12 Z M-2 13 C-1.01 13.99 -0.02 14.98 1 16 C1 15.01 1 14.02 1 13 C0.01 13 -0.98 13 -2 13 Z M-9 14 C-9 15.32 -9 16.64 -9 18 C-6.69 18 -4.38 18 -2 18 C-3.81222534 15.9375006 -3.81222534 15.9375006 -6 14 C-6.99 14 -7.98 14 -9 14 Z M6 14 C6.33 14.66 6.66 15.32 7 16 C7.33 15.34 7.66 14.68 8 14 C7.34 14 6.68 14 6 14 Z M3 18 C2.67 19.32 2.34 20.64 2 22 C2.99 20.68 3.98 19.36 5 18 C4.34 18 3.68 18 3 18 Z M8 18 C9 20 9 20 9 20 Z M7 20 C6.08121769 21.06801128 5.21391213 22.18067163 4.375 23.3125 C3.67503906 24.23482422 3.67503906 24.23482422 2.9609375 25.17578125 C2.64382813 25.77777344 2.32671875 26.37976563 2 27 C2.33 27.99 2.66 28.98 3 30 C5.91227269 26.71195019 7.49701212 24.40114397 8 20 C7.67 20 7.34 20 7 20 Z M14 23 C13.34 24.32 12.68 25.64 12 27 C12.99 26.67 13.98 26.34 15 26 C15.33 25.01 15.66 24.02 16 23 C15.34 23 14.68 23 14 23 Z M-6 24 C-5.67 24.99 -5.34 25.98 -5 27 C-3.02 26.34 -1.04 25.68 1 25 C1 24.67 1 24.34 1 24 C-1.31 24 -3.62 24 -6 24 Z " fill="#5C5F52" transform="translate(12,0)"/>
<path d="M0 0 C1.65 0.33 3.3 0.66 5 1 C5 2.98 5 4.96 5 7 C6.65 7.66 8.3 8.32 10 9 C9.25 15.75 9.25 15.75 7 18 C7.391875 18.556875 7.78375 19.11375 8.1875 19.6875 C9 22 9 22 8 24.6875 C6 27 6 27 2.8125 27.8125 C1.884375 27.874375 0.95625 27.93625 0 28 C-0.33 27.34 -0.66 26.68 -1 26 C-1.37125 26.66 -1.7425 27.32 -2.125 28 C-4 30 -4 30 -7.125 30.3125 C-10 30 -10 30 -11 29 C-11.49035219 25.56148092 -11.14654856 24.22318993 -9.21484375 21.28125 C-7.69556883 19.42580618 -6.17473228 17.57163997 -4.65234375 15.71875 C-2.70572997 13.14553238 -2.70572997 13.14553238 -3.31640625 10.34375 C-3.54199219 9.5703125 -3.76757812 8.796875 -4 8 C-3.67 7.01 -3.34 6.02 -3 5 C-3.66 4.67 -4.32 4.34 -5 4 C-4.01 3.67 -3.02 3.34 -2 3 C-1.34 2.01 -0.68 1.02 0 0 Z M1 3 C0.67 4.65 0.34 6.3 0 8 C0.66 7.67 1.32 7.34 2 7 C1.67 5.68 1.34 4.36 1 3 Z M-1 8 C0 10 0 10 0 10 Z M6 10 C4.37168238 11.80961577 4.37168238 11.80961577 3 14 C3.33 14.99 3.66 15.98 4 17 C5.62831762 15.19038423 5.62831762 15.19038423 7 13 C6.67 12.01 6.34 11.02 6 10 Z M-2 16 C-1 18 -1 18 -1 18 Z M-3 18 C-3.91878231 19.06801128 -4.78608787 20.18067163 -5.625 21.3125 C-6.32496094 22.23482422 -6.32496094 22.23482422 -7.0390625 23.17578125 C-7.35617188 23.77777344 -7.67328125 24.37976563 -8 25 C-7.67 25.99 -7.34 26.98 -7 28 C-4.08772731 24.71195019 -2.50298788 22.40114397 -2 18 C-2.33 18 -2.66 18 -3 18 Z M4 21 C3.34 22.32 2.68 23.64 2 25 C2.99 24.67 3.98 24.34 5 24 C5.33 23.01 5.66 22.02 6 21 C5.34 21 4.68 21 4 21 Z " fill="#6494C7" transform="translate(22,2)"/>
<path d="M0 0 C0.66 1.32 1.32 2.64 2 4 C4.64 4 7.28 4 10 4 C10 3.67 10 3.34 10 3 C11.65 3 13.3 3 15 3 C13.125 9.875 13.125 9.875 12 11 C9.66702567 11.04092937 7.33294775 11.04241723 5 11 C5.66 11.66 6.32 12.32 7 13 C9.10820797 12.6814823 9.10820797 12.6814823 11 12 C9.54728878 15.75283733 9.54728878 15.75283733 7.0625 16.875 C5 17 5 17 2 15 C2 13 2 11 2 9 C1.0206121 7.97980427 0.02104551 6.97850195 -1 6 C-1.25 3.375 -1.25 3.375 -1 1 C-0.67 0.67 -0.34 0.34 0 0 Z " fill="#565A4C" transform="translate(1,13)"/>
<path d="M0 0 C1.98 0 3.96 0 6 0 C5.01 0.495 5.01 0.495 4 1 C4 1.66 4 2.32 4 3 C6.31 3 8.62 3 11 3 C11 3.33 11 3.66 11 4 C8.69 4 6.38 4 4 4 C4.66 4.66 5.32 5.32 6 6 C8.10820797 5.6814823 8.10820797 5.6814823 10 5 C8.54728878 8.75283733 8.54728878 8.75283733 6.0625 9.875 C4 10 4 10 1 8 C0.875 5 0.875 5 1 2 C0.67 1.34 0.34 0.68 0 0 Z " fill="#686B5D" transform="translate(2,20)"/>
<path d="M0 0 C0.33 0.99 0.66 1.98 1 3 C-0.2739589 5.03833424 -1.61061923 7.03852126 -3 9 C-3.33 9.99 -3.66 10.98 -4 12 C-2.68 11.67 -1.36 11.34 0 11 C0 11.99 0 12.98 0 14 C-1.99954746 14.04254356 -4.00041636 14.04080783 -6 14 C-7 13 -7 13 -7.375 10.875 C-6.83992187 6.77273436 -4.71328623 4.05861357 -2 1 C-1.34 0.67 -0.68 0.34 0 0 Z " fill="#6191C4" transform="translate(18,18)"/>
<path d="M0 0 C2.56784647 1.48664796 3.79969925 2.88768303 5.375 5.375 C5.045 6.035 4.715 6.695 4.375 7.375 C3.88 7.08625 3.385 6.7975 2.875 6.5 C-0.54252035 4.96211584 -3.9756202 4.22652195 -7.625 3.375 C-7.625 2.715 -7.625 2.055 -7.625 1.375 C-4.7130878 -0.12255485 -3.23898006 -0.77118573 0 0 Z " fill="#65695C" transform="translate(7.625,10.625)"/>
<path d="M0 0 C1.65 0.33 3.3 0.66 5 1 C4.67 1.66 4.34 2.32 4 3 C3.01 3 2.02 3 1 3 C0.67 4.65 0.34 6.3 0 8 C-1.65 6.68 -3.3 5.36 -5 4 C-4.01 3.67 -3.02 3.34 -2 3 C-1.34 2.01 -0.68 1.02 0 0 Z " fill="#719AC6" transform="translate(22,2)"/>
<path d="M0 0 C1.66611905 -0.042721 3.33382885 -0.04063832 5 0 C6 1 6 1 6.0625 3.5625 C6.041875 4.366875 6.02125 5.17125 6 6 C5.01 6 4.02 6 3 6 C3 4.68 3 3.36 3 2 C2.01 1.67 1.02 1.34 0 1 C0 0.67 0 0.34 0 0 Z " fill="#5B5E50" transform="translate(14,0)"/>
<path d="M0 0 C0.99 0.33 1.98 0.66 3 1 C2.67 2.98 2.34 4.96 2 7 C1.34 7 0.68 7 0 7 C0 6.34 0 5.68 0 5 C-0.66 5 -1.32 5 -2 5 C-1.34 3.35 -0.68 1.7 0 0 Z " fill="#777A6F" transform="translate(12,0)"/>
<path d="M0 0 C2.0625 0.4375 2.0625 0.4375 4 1 C3.67 2.65 3.34 4.3 3 6 C2.01 5.67 1.02 5.34 0 5 C-0.75 3 -0.75 3 -1 1 C-0.67 0.67 -0.34 0.34 0 0 Z " fill="#729DCC" transform="translate(27,21)"/>
<path d="M0 0 C0.99 0.99 1.98 1.98 3 3 C2.34 4.32 1.68 5.64 1 7 C1 6.34 1 5.68 1 5 C0.34 5 -0.32 5 -1 5 C-1.33 4.01 -1.66 3.02 -2 2 C-1.34 2 -0.68 2 0 2 C0 1.34 0 0.68 0 0 Z " fill="#797C71" transform="translate(15,11)"/>
<path d="M0 0 C1.98 0.99 1.98 0.99 4 2 C4 3.32 4 4.64 4 6 C3.34 6 2.68 6 2 6 C2 5.34 2 4.68 2 4 C1.34 4 0.68 4 0 4 C0 2.68 0 1.36 0 0 Z " fill="#5C5F52" transform="translate(14,5)"/>
</svg>
